# xmcd CD database file
# Copyright (C) 1993-1998 Ti Kan
#
# Track frame offsets:
#  150
#  27532
#  48572
#  69060
#  90242
#  114055
#  137210
#  154315
#  185892
#  217257
#  246687
#
# Disc length: 3577 seconds
#
# Revision: 1
# Processed by: cddbd v1.4b41PL1 Copyright (c) Steve Scherf et al.
# Submitted via: CDWizzard Release:4.35
#
DISCID=a20df70b
DTITLE=Norman Connors - Passion
DYEAR=1900
DGENRE=
TTITLE0=I Am Your Melody
TTITLE1=Your're My One And Only Love
TTITLE2=Heaven In Your Eyes
TTITLE3=Private Stock
TTITLE4=Passion
TTITLE5=Lovin' You
TTITLE6=Shabba
TTITLE7=That's The Way Of The World
TTITLE8=Welcome To My Life
TTITLE9=Obsession
TTITLE10=Samba For Maria
EXTD=
EXTT0=
EXTT1=
EXTT2=
EXTT3=
EXTT4=
EXTT5=
EXTT6=
EXTT7=
EXTT8=
EXTT9=
EXTT10=
PLAYORDER=
